<svg xmlns="http://www.w3.org/2000/svg" viewBox="0 0 200 200" width="400" height="400">
  <defs>
    <linearGradient id="g" x1="0" x2="1">
      <stop offset="0%" stop-color="#7DE8A6"/>
      <stop offset="100%" stop-color="#33C1F0"/>
    </linearGradient>
  </defs>
  <rect width="100%" height="100%" rx="20" fill="url(#g)"/>
  <g transform="translate(100,100)">
    <circle cx="0" cy="-10" r="28" fill="#FFFFFF" opacity="0.12"/>
    <path d="M-16 6c0-8 6-14 14-14s14 6 14 14-6 14-14 14-14-6-14-14z" fill="#fff"/>
    <path d="M-14 6c0-7 5-12 12-12s12 5 12 12-5 12-12 12-12-5-12-12z" fill="#7DE8A6"/>
    <path d="M-6 -6 L6 -6 L6 10 L-6 10 Z" fill="#33C1F0" opacity="0.9"/>
  </g>
</svg>